<svg width="24" height="6" viewBox="0 0 24 6" fill="none" xmlns="http://www.w3.org/2000/svg">
<path fill-rule="evenodd" clip-rule="evenodd" d="M3 4C3.55228 4 4 3.55228 4 3C4 2.44772 3.55228 2 3 2C2.44772 2 2 2.44772 2 3C2 3.55228 2.44772 4 3 4ZM3 6C4.65685 6 6 4.65685 6 3C6 1.34315 4.65685 0 3 0C1.34315 0 0 1.34315 0 3C0 4.65685 1.34315 6 3 6Z" fill="#B6B6B6"/>
<path fill-rule="evenodd" clip-rule="evenodd" d="M12 4C12.5523 4 13 3.55228 13 3C13 2.44772 12.5523 2 12 2C11.4477 2 11 2.44772 11 3C11 3.55228 11.4477 4 12 4ZM12 6C13.6569 6 15 4.65685 15 3C15 1.34315 13.6569 0 12 0C10.3431 0 9 1.34315 9 3C9 4.65685 10.3431 6 12 6Z" fill="#B6B6B6"/>
<path fill-rule="evenodd" clip-rule="evenodd" d="M21 4C21.5523 4 22 3.55228 22 3C22 2.44772 21.5523 2 21 2C20.4477 2 20 2.44772 20 3C20 3.55228 20.4477 4 21 4ZM21 6C22.6569 6 24 4.65685 24 3C24 1.34315 22.6569 0 21 0C19.3431 0 18 1.34315 18 3C18 4.65685 19.3431 6 21 6Z" fill="#B6B6B6"/>
</svg>
