<svg xmlns="http://www.w3.org/2000/svg" style="display: none;">
    <symbol id="sprite-dashboard">
                <rect x="3" y="3" width="8" height="8" rx="3" />
                <rect x="3" y="13" width="8" height="8" rx="3" />
                <rect x="13" y="3" width="8" height="8" rx="3" />
                <rect x="13" y="13" width="8" height="8" rx="3" />
    </symbol>

    <symbol id="sprite-projects">
            <path fill-rule="evenodd" clip-rule="evenodd" d="M6 2C4.34315 2 3 3.34315 3 5V19C3 20.6569 4.34315 22 6 22H18C19.6569 22 21 20.6569 21 19V7.74264C21 6.94699 20.6839 6.18393 20.1213 5.62132L17.3787 2.87868C16.8161 2.31607 16.053 2 15.2574 2H6ZM15 4.2071V6C15 7.10457 15.8954 8 17 8H18.7929C19.2383 8 19.4614 7.46143 19.1464 7.14644L15.8536 3.85355C15.5386 3.53857 15 3.76165 15 4.2071ZM7 11C7 10.4477 7.44772 10 8 10H16C16.5523 10 17 10.4477 17 11C17 11.5523 16.5523 12 16 12H8C7.44772 12 7 11.5523 7 11ZM8 14C7.44772 14 7 14.4477 7 15C7 15.5523 7.44772 16 8 16H12C12.5523 16 13 15.5523 13 15C13 14.4477 12.5523 14 12 14H8Z" />
    </symbol>
    <symbol id="sprite-task">
        <path fill-rule="evenodd" clip-rule="evenodd" d="M7 7C7 6.44772 7.44772 6 8 6H20C20.5523 6 21 6.44772 21 7C21 7.55228 20.5523 8 20 8H8C7.44772 8 7 7.55228 7 7Z" />
        <path fill-rule="evenodd" clip-rule="evenodd" d="M7 12C7 11.4477 7.44772 11 8 11H20C20.5523 11 21 11.4477 21 12C21 12.5523 20.5523 13 20 13H8C7.44772 13 7 12.5523 7 12Z" />
        <path fill-rule="evenodd" clip-rule="evenodd" d="M7 17C7 16.4477 7.44772 16 8 16H20C20.5523 16 21 16.4477 21 17C21 17.5523 20.5523 18 20 18H8C7.44772 18 7 17.5523 7 17Z" />
        <path d="M5 7C5 7.55228 4.55228 8 4 8C3.44772 8 3 7.55228 3 7C3 6.44772 3.44772 6 4 6C4.55228 6 5 6.44772 5 7Z" />
        <path d="M5 12C5 12.5523 4.55228 13 4 13C3.44772 13 3 12.5523 3 12C3 11.4477 3.44772 11 4 11C4.55228 11 5 11.4477 5 12Z" />
        <path d="M5 17C5 17.5523 4.55228 18 4 18C3.44772 18 3 17.5523 3 17C3 16.4477 3.44772 16 4 16C4.55228 16 5 16.4477 5 17Z" />
    </symbol>

    <symbol id="sprite-message">
        <path fill-rule="evenodd" clip-rule="evenodd" d="M2 6C2 4.34315 3.34315 3 5 3H19C20.6569 3 22 4.34315 22 6V16C22 17.6569 20.6569 19 19 19H8.36205C8.12811 19 7.90158 19.082 7.72187 19.2318L5.28037 21.2664C3.97771 22.3519 2 21.4256 2 19.7299V6ZM7 9C7 8.44772 7.44772 8 8 8H16C16.5523 8 17 8.44772 17 9C17 9.55228 16.5523 10 16 10H8C7.44772 10 7 9.55228 7 9ZM8 12C7.44772 12 7 12.4477 7 13C7 13.5523 7.44772 14 8 14H12C12.5523 14 13 13.5523 13 13C13 12.4477 12.5523 12 12 12H8Z" />
    </symbol>
    <symbol id="sprite-analytics">
        <path fill-rule="evenodd" clip-rule="evenodd" d="M3 2C3.55228 2 4 2.44772 4 3V19C4 19.5523 4.44772 20 5 20H21C21.5523 20 22 20.4477 22 21C22 21.5523 21.5523 22 21 22H5C3.34315 22 2 20.6569 2 19V3C2 2.44772 2.44772 2 3 2Z" />
        <path fill-rule="evenodd" clip-rule="evenodd" d="M7 8C7.55228 8 8 8.44772 8 9V17C8 17.5523 7.55228 18 7 18C6.44772 18 6 17.5523 6 17V9C6 8.44772 6.44772 8 7 8Z" />
        <path fill-rule="evenodd" clip-rule="evenodd" d="M11 14C11.5523 14 12 14.4477 12 15V17C12 17.5523 11.5523 18 11 18C10.4477 18 10 17.5523 10 17V15C10 14.4477 10.4477 14 11 14Z" />
        <path fill-rule="evenodd" clip-rule="evenodd" d="M15 4C15.5523 4 16 4.44772 16 5V17C16 17.5523 15.5523 18 15 18C14.4477 18 14 17.5523 14 17V5C14 4.44772 14.4477 4 15 4Z" />
        <path fill-rule="evenodd" clip-rule="evenodd" d="M19 10C19.5523 10 20 10.4477 20 11V17C20 17.5523 19.5523 18 19 18C18.4477 18 18 17.5523 18 17V11C18 10.4477 18.4477 10 19 10Z" />
    </symbol>
    <symbol id="sprite-employ">
        <path d="M3 18V20C3 21.1046 3.89543 22 5 22H19C20.1046 22 21 21.1046 21 20V18C21 15.2386 18.7614 13 16 13H8C5.23858 13 3 15.2386 3 18Z"/>
        <circle cx="12" cy="6.5" r="4.5" />
    </symbol>
    <symbol id="sprite-bag">
        <path fill-rule="evenodd" clip-rule="evenodd" d="M8.20064 3.25859L7.40909 5H5C3.55025 5 2.34069 6.02835 2.06095 7.3954C2.02099 7.59069 2 7.79289 2 8V9.5C2 10.8807 3.11929 12 4.5 12H8.17071C8.58254 10.8348 9.69378 10 11 10H13C14.3062 10 15.4175 10.8348 15.8293 12H19.5C20.8807 12 22 10.8807 22 9.5V8C22 6.34315 20.6569 5 19 5H16.5909L15.7994 3.25859C15.3125 2.18761 14.2447 1.5 13.0683 1.5H10.9317C9.75531 1.5 8.68745 2.18761 8.20064 3.25859ZM13.0683 3.5H10.9317C10.5396 3.5 10.1836 3.7292 10.0214 4.0862L9.60601 5H14.394L13.9786 4.0862C13.8164 3.7292 13.4604 3.5 13.0683 3.5Z" />
        <path d="M8.17071 14H4.5C3.74231 14 3.02835 13.8127 2.40189 13.482C2.22513 13.3886 2 13.5105 2 13.7104V19C2 20.6569 3.34315 22 5 22H19C20.6569 22 22 20.6569 22 19V13.7104C22 13.5105 21.7749 13.3886 21.5981 13.482C20.9716 13.8127 20.2577 14 19.5 14H15.8293C15.4175 15.1652 14.3062 16 13 16H11C9.69378 16 8.58254 15.1652 8.17071 14Z" />
        <path d="M11 12C10.4477 12 10 12.4477 10 13C10 13.5523 10.4477 14 11 14H13C13.5523 14 14 13.5523 14 13C14 12.4477 13.5523 12 13 12H11Z" />
    </symbol>
    <symbol id="sprite-multiselect">
        <path fill-rule="evenodd" clip-rule="evenodd" d="M6 5C6 3.34315 7.34315 2 9 2H19C20.6569 2 22 3.34315 22 5V15C22 16.6569 20.6569 18 19 18H18V19C18 20.6569 16.6569 22 15 22H5C3.34315 22 2 20.6569 2 19V9C2 7.34315 3.34315 6 5 6H6V5ZM17.2682 7.03646C16.9322 6.94326 16.557 7.02874 16.2929 7.29289L13 10.5858L11.7071 9.29289C11.3166 8.90237 10.6834 8.90237 10.2929 9.29289C9.90237 9.68342 9.90237 10.3166 10.2929 10.7071L12.2929 12.7071C12.6834 13.0976 13.3166 13.0976 13.7071 12.7071L17.7071 8.70711C17.8047 8.60948 17.878 8.49668 17.9268 8.3763C17.9286 8.37178 17.9304 8.36725 17.9322 8.36271C18.0714 8.00444 17.9963 7.58212 17.7071 7.29289C17.5807 7.16652 17.429 7.08105 17.2682 7.03646ZM16 18H9C7.34315 18 6 16.6569 6 15V8H5C4.44772 8 4 8.44772 4 9V19C4 19.5523 4.44772 20 5 20H15C15.5523 20 16 19.5523 16 19V18Z" />
    </symbol>
    <symbol id="sprite-close">
        <svg width="24" height="24" viewBox="0 0 24 24" fill="none" xmlns="http://www.w3.org/2000/svg">
            <path d="M6.7072 5.29289C6.31668 4.90237 5.68351 4.90237 5.29299 5.29289C4.90246 5.68342 4.90246 6.31658 5.29299 6.70711L10.5858 12L5.29289 17.2929C4.90237 17.6834 4.90237 18.3166 5.29289 18.7071C5.68342 19.0976 6.31658 19.0976 6.70711 18.7071L12 13.4142L17.293 18.7071C17.6835 19.0976 18.3167 19.0976 18.7072 18.7071C19.0977 18.3166 19.0977 17.6834 18.7072 17.2929L13.4143 12L18.7071 6.70711C19.0976 6.31658 19.0976 5.68342 18.7071 5.29289C18.3166 4.90237 17.6834 4.90237 17.2929 5.29289L12 10.5857L6.7072 5.29289Z" fill="white"/>
            <rect x="0.5" y="0.5" width="23" height="23" rx="2.5" stroke="white"/>
        </svg>
    </symbol>
    <symbol id="sprite-play">
        <path fill-rule="evenodd" clip-rule="evenodd" d="M8 16C3.58171 16 0 12.4183 0 8C0 3.58171 3.58171 0 8 0C12.4183 0 16 3.58171 16 8C16 12.4183 12.4183 16 8 16ZM6.68069 4.99829C6.62689 4.96346 6.56406 4.94505 6.49999 4.94505C6.31595 4.94505 6.16662 5.09427 6.16662 5.27842V10.7216C6.16662 10.7857 6.18515 10.8485 6.21986 10.9024C6.31975 11.0571 6.526 11.1015 6.68069 11.0017L10.8993 8.28015C10.939 8.25448 10.9729 8.22056 10.9986 8.18071C11.0984 8.02602 11.0539 7.81977 10.8993 7.71988L6.68069 4.99829Z"/>
    </symbol>
    <symbol id="sprite-packet">
        <path fill-rule="evenodd" clip-rule="evenodd" d="M8.99992 1.5C7.34307 1.5 5.99992 2.84315 5.99992 4.5H4.98617C3.85144 4.5 2.89429 5.34496 2.75355 6.47092L1.81605 13.9709C1.64818 15.3138 2.6953 16.5 4.04867 16.5H13.9512C15.3045 16.5 16.3516 15.3138 16.1838 13.9709L15.2463 6.47092C15.1055 5.34496 14.1484 4.5 13.0137 4.5H11.9999C11.9999 2.84315 10.6568 1.5 8.99992 1.5ZM10.4999 6V6.75C10.4999 7.16421 10.8357 7.5 11.2499 7.5C11.6641 7.5 11.9999 7.16421 11.9999 6.75V6H13.0137C13.3919 6 13.7109 6.28165 13.7579 6.65697L14.6954 14.157C14.7513 14.6046 14.4023 15 13.9512 15H4.04867C3.59755 15 3.24851 14.6046 3.30446 14.157L4.24196 6.65697C4.28888 6.28165 4.60793 6 4.98617 6H5.99992V6.75C5.99992 7.16421 6.33571 7.5 6.74992 7.5C7.16414 7.5 7.49992 7.16421 7.49992 6.75V6H10.4999ZM10.4999 4.5C10.4999 3.67157 9.82835 3 8.99992 3C8.1715 3 7.49992 3.67157 7.49992 4.5H10.4999Z"/>
    </symbol>
    <symbol id="sprite-wallet">
        <path fill-rule="evenodd" clip-rule="evenodd" d="M15 4.62803V3.75C15 2.50736 13.9926 1.5 12.75 1.5H3.75C2.50736 1.5 1.5 2.50736 1.5 3.75V14.25C1.5 15.4926 2.50736 16.5 3.75 16.5H14.25C15.4926 16.5 16.5 15.4926 16.5 14.25V6.75C16.5 5.77034 15.8739 4.93691 15 4.62803ZM3 3.75C3 3.33579 3.33579 3 3.75 3H12.75C13.1642 3 13.5 3.33579 13.5 3.75V4.5H3.75C3.33579 4.5 3 4.16421 3 3.75ZM3 5.87197C3.23458 5.95488 3.48702 6 3.75 6H14.25C14.6642 6 15 6.33579 15 6.75V8.25H12.75C11.5074 8.25 10.5 9.25736 10.5 10.5C10.5 11.7426 11.5074 12.75 12.75 12.75H15V14.25C15 14.6642 14.6642 15 14.25 15H3.75C3.33579 15 3 14.6642 3 14.25V5.87197ZM12.75 9.75H15V11.25H12.75C12.3358 11.25 12 10.9142 12 10.5C12 10.0858 12.3358 9.75 12.75 9.75Z" fill="#FF9F38"/>
    </symbol>
    <symbol id="sprite-lines">
        <path fill-rule="evenodd" clip-rule="evenodd" d="M1.75997 2.25334C2.38221 2.25334 2.88664 1.74891 2.88664 1.12667C2.88664 0.504427 2.38221 0 1.75997 0C1.13773 0 0.633301 0.504427 0.633301 1.12667C0.633301 1.74891 1.13773 2.25334 1.75997 2.25334ZM5.05341 0C4.43117 0 3.92674 0.504427 3.92674 1.12667C3.92674 1.74891 4.43117 2.25334 5.05341 2.25334H18.5734C19.1957 2.25334 19.7001 1.74891 19.7001 1.12667C19.7001 0.504427 19.1957 0 18.5734 0H5.05341ZM5.05341 5.37333C4.43117 5.37333 3.92674 5.87776 3.92674 6.5C3.92674 7.12224 4.43117 7.62667 5.05341 7.62667H18.5734C19.1957 7.62667 19.7001 7.12224 19.7001 6.5C19.7001 5.87776 19.1957 5.37333 18.5734 5.37333H5.05341ZM3.92674 11.8733C3.92674 11.2511 4.43117 10.7467 5.05341 10.7467H18.5734C19.1957 10.7467 19.7001 11.2511 19.7001 11.8733C19.7001 12.4956 19.1957 13 18.5734 13H5.05341C4.43117 13 3.92674 12.4956 3.92674 11.8733ZM2.88665 6.5C2.88665 7.12224 2.38223 7.62667 1.75998 7.62667C1.13774 7.62667 0.633316 7.12224 0.633316 6.5C0.633316 5.87776 1.13774 5.37333 1.75998 5.37333C2.38223 5.37333 2.88665 5.87776 2.88665 6.5ZM1.75998 13C2.38223 13 2.88665 12.4956 2.88665 11.8733C2.88665 11.2511 2.38223 10.7467 1.75998 10.7467C1.13774 10.7467 0.633316 11.2511 0.633316 11.8733C0.633316 12.4956 1.13774 13 1.75998 13Z" />
    </symbol>
    <symbol id="sprite-squares">
        <path fill-rule="evenodd" clip-rule="evenodd" d="M3 2H5C5.55228 2 6 2.44772 6 3V5C6 5.55228 5.55228 6 5 6H3C2.44772 6 2 5.55228 2 5V3C2 2.44772 2.44772 2 3 2ZM0 3C0 1.34315 1.34315 0 3 0H5C6.65685 0 8 1.34315 8 3V5C8 6.65685 6.65685 8 5 8H3C1.34315 8 0 6.65685 0 5V3ZM3 12H5C5.55228 12 6 12.4477 6 13V15C6 15.5523 5.55228 16 5 16H3C2.44772 16 2 15.5523 2 15V13C2 12.4477 2.44772 12 3 12ZM0 13C0 11.3431 1.34315 10 3 10H5C6.65685 10 8 11.3431 8 13V15C8 16.6569 6.65685 18 5 18H3C1.34315 18 0 16.6569 0 15V13ZM15 2H13C12.4477 2 12 2.44772 12 3V5C12 5.55228 12.4477 6 13 6H15C15.5523 6 16 5.55228 16 5V3C16 2.44772 15.5523 2 15 2ZM13 0C11.3431 0 10 1.34315 10 3V5C10 6.65685 11.3431 8 13 8H15C16.6569 8 18 6.65685 18 5V3C18 1.34315 16.6569 0 15 0H13ZM13 12H15C15.5523 12 16 12.4477 16 13V15C16 15.5523 15.5523 16 15 16H13C12.4477 16 12 15.5523 12 15V13C12 12.4477 12.4477 12 13 12ZM10 13C10 11.3431 11.3431 10 13 10H15C16.6569 10 18 11.3431 18 13V15C18 16.6569 16.6569 18 15 18H13C11.3431 18 10 16.6569 10 15V13Z" />
    </symbol>
    <symbol id="sprite-small_message">
        <path d="M13.5882 7V13.5882H7C3.36142 13.5882 0.411765 10.6386 0.411765 7C0.411765 3.36142 3.36142 0.411765 7 0.411765C10.6386 0.411765 13.5882 3.36142 13.5882 7Z" fill="white" stroke="#B6B6B6" stroke-width="0.82353"/>
        <rect x="4" y="5" width="7" height="1" fill="#B6B6B6"/>
        <rect x="4" y="8" width="6" height="1" fill="#B6B6B6"/>
    </symbol>
    <symbol id="sprite-complete">
            <path d="M1 3.5L4 6.5L7 3.75L10 1"  stroke-width="1.5" stroke-linecap="round"/>
    </symbol>
    <symbol id="sprite-vk">
        <path fill-rule="evenodd" clip-rule="evenodd" d="M9.06683 9.06665C5.3335 12.8355 5.3335 18.8622 5.3335 30.9333V33.0666C5.3335 45.12 5.3335 51.1466 9.06683 54.9333C12.8357 58.6666 18.8624 58.6666 30.9335 58.6666H33.0668C45.1202 58.6666 51.1468 58.6666 54.9335 54.9333C58.6668 51.1645 58.6668 45.1378 58.6668 33.0666V30.9333C58.6668 18.88 58.6668 12.8533 54.9335 9.06665C51.1647 5.33331 45.138 5.33331 33.0668 5.33331H30.9335C18.8802 5.33331 12.8535 5.33331 9.06683 9.06665ZM14.329 21.5644C14.6135 35.4312 21.5468 43.7512 33.7068 43.7512H34.418V35.8221C38.8802 36.2666 42.258 39.5378 43.609 43.7512H49.9202C49.273 41.357 48.1252 39.1272 46.5532 37.2088C44.9812 35.2906 43.0204 33.7274 40.8002 32.6221C42.7898 31.4106 44.5082 29.8016 45.8479 27.896C47.1876 25.9904 48.1202 23.8289 48.5868 21.5466H42.8623C41.618 25.9556 37.9202 29.9554 34.418 30.3288V21.5644H28.6756V36.9245C25.1202 36.0354 20.6402 31.7333 20.4446 21.5644H14.329Z"/>
    </symbol>
    <symbol id="sprite-gh">
        <path d="M31.9998 2.74999C15.4358 2.74999 2.00781 16.178 2.00781 32.742C2.00781 45.912 10.4978 57.102 22.3038 61.132L22.5158 61.194C24.0158 61.476 24.5658 60.55 24.5658 59.752C24.5658 59.04 24.5418 57.152 24.5278 54.654C16.1858 56.464 14.4258 50.63 14.4258 50.63C13.8498 48.78 12.6698 47.26 11.1198 46.262L11.0878 46.244C8.37181 44.384 11.2978 44.422 11.2978 44.422C13.2718 44.7 14.9258 45.858 15.8758 47.482L15.8918 47.512C16.9998 49.502 19.0918 50.826 21.4938 50.826C22.6458 50.826 23.7258 50.522 24.6578 49.988L24.6258 50.004C24.7698 48.422 25.4678 47.026 26.5238 45.994L26.5258 45.992C19.8658 45.242 12.8638 42.662 12.8638 31.172C12.8638 31.118 12.8618 31.056 12.8618 30.994C12.8618 27.952 14.0358 25.184 15.9558 23.118L15.9498 23.126C15.5438 22.042 15.3078 20.79 15.3078 19.484C15.3078 17.93 15.6398 16.452 16.2378 15.12L16.2098 15.188C16.2098 15.188 18.7218 14.384 24.4578 18.262C26.7058 17.62 29.2878 17.25 31.9558 17.25C34.6238 17.25 37.2058 17.62 39.6538 18.31L39.4538 18.262C45.1518 14.384 47.6638 15.188 47.6638 15.188C48.2338 16.472 48.5658 17.968 48.5658 19.542C48.5658 20.826 48.3458 22.058 47.9398 23.202L47.9638 23.126C49.8698 25.19 51.0398 27.958 51.0398 31C51.0398 31.062 51.0398 31.122 51.0378 31.182V31.172C51.0378 42.694 44.0278 45.23 37.3538 45.968C38.6178 47.262 39.3978 49.032 39.3978 50.986C39.3978 51.172 39.3898 51.358 39.3758 51.542L39.3778 51.518C39.3778 55.532 39.3398 58.756 39.3398 59.73C39.3398 60.518 39.8638 61.454 41.4018 61.154C53.4578 57.096 61.9858 45.896 61.9858 32.702C61.9858 16.158 48.5738 2.74799 32.0318 2.74799C32.0198 2.74799 32.0058 2.74799 31.9938 2.74799H31.9958L31.9998 2.74999Z"/>
    </symbol>
    <symbol id="sprite-inst">
        <path d="M57.5558 2.008H6.43577C6.41977 2.008 6.40177 2.008 6.38177 2.008C3.98377 2.008 2.03777 3.936 2.00977 6.326V57.67C2.03777 60.062 3.98377 61.992 6.38177 61.992C6.40177 61.992 6.41977 61.992 6.43977 61.992H57.5498C57.5658 61.992 57.5858 61.992 57.6058 61.992C60.0058 61.992 61.9558 60.066 61.9938 57.674V57.67V6.33C61.9558 3.936 60.0058 2.008 57.6038 2.008C57.5838 2.008 57.5658 2.008 57.5458 2.008H57.5478H57.5558ZM19.7998 53.124H10.8918V24.502H19.7998V53.124ZM15.3478 20.586C12.4978 20.586 10.1898 18.276 10.1898 15.428C10.1898 12.58 12.4998 10.27 15.3478 10.27C18.1958 10.27 20.5058 12.578 20.5058 15.426C20.5058 15.428 20.5058 15.43 20.5058 15.434C20.5058 18.28 18.1978 20.588 15.3518 20.588C15.3498 20.588 15.3478 20.588 15.3458 20.588L15.3478 20.586ZM53.1118 53.124H44.2298V39.206C44.2298 35.886 44.1618 31.616 39.6018 31.616C34.9698 31.616 34.2638 35.228 34.2638 38.962V53.126H25.3818V24.504H33.9138V28.406H34.0298C35.6858 25.616 38.6818 23.776 42.1078 23.776C42.2298 23.776 42.3498 23.778 42.4698 23.782H42.4518C51.4518 23.782 53.1158 29.706 53.1158 37.416V53.126L53.1118 53.124Z" />
    </symbol>
    <symbol id="sprite-twitter">
        <path d="M61.8342 13.456C59.7822 14.386 57.4002 15.066 54.9062 15.378L54.7842 15.39C57.3202 13.848 59.2282 11.486 60.1582 8.68202L60.1842 8.59402C57.9362 9.92802 55.3222 10.952 52.5442 11.522L52.3802 11.55C50.1342 9.15202 46.9462 7.65802 43.4102 7.65802C36.6282 7.65802 31.1302 13.156 31.1302 19.938C31.1302 20.93 31.2482 21.896 31.4702 22.82L31.4542 22.736C21.2282 22.228 12.2282 17.376 6.19618 10.004L6.14618 9.94202C5.10218 11.688 4.48418 13.794 4.48418 16.046C4.48418 16.072 4.48418 16.098 4.48418 16.124V16.12C4.48418 16.122 4.48418 16.126 4.48418 16.13C4.48418 20.37 6.63418 24.108 9.90218 26.316L9.94618 26.344C7.89418 26.276 5.98818 25.714 4.32418 24.774L4.38618 24.806V24.956C4.38618 24.958 4.38618 24.96 4.38618 24.96C4.38618 30.882 8.57618 35.828 14.1542 36.988L14.2342 37.002C13.2662 37.272 12.1542 37.426 11.0062 37.426C10.1942 37.426 9.40218 37.348 8.63418 37.2L8.71218 37.212C10.3382 42.13 14.8482 45.636 20.1902 45.74H20.2022C16.0582 49.016 10.7602 50.994 4.99818 50.994C4.98818 50.994 4.98018 50.994 4.97018 50.994H4.97218C3.94218 50.992 2.92818 50.932 1.93018 50.816L2.05218 50.828C7.37818 54.286 13.8922 56.342 20.8882 56.342C20.8982 56.342 20.9062 56.342 20.9162 56.342H20.9142C20.9882 56.342 21.0782 56.342 21.1662 56.342C40.3222 56.342 55.8522 40.812 55.8522 21.656C55.8522 21.578 55.8522 21.502 55.8522 21.424V21.436C55.8522 20.912 55.8522 20.388 55.8142 19.864C58.2342 18.108 60.2722 16.002 61.8982 13.592L61.9542 13.504L61.8342 13.456Z" />
    </symbol>
    <symbol id="sprite-arrow-down">
        <path fill-rule="evenodd" clip-rule="evenodd" d="M14.7071 0.292893C14.3166 -0.0976312 13.6834 -0.0976313 13.2929 0.292893L7.5 6.08578L1.70711 0.292891C1.31658 -0.0976335 0.683417 -0.0976336 0.292893 0.292891C-0.0976316 0.683415 -0.0976317 1.31658 0.292893 1.7071L6.08578 7.5C6.86683 8.28105 8.13316 8.28105 8.91421 7.5L14.7071 1.70711C15.0976 1.31658 15.0976 0.683418 14.7071 0.292893Z" fill="#6F767E"/>
    </symbol>
    <symbol id="sprite-arrow-right">
        <path d="M25.7139 16.4835L0.92266 31.978L0.922662 0.989013L25.7139 16.4835Z" />
    </symbol>
    <symbol id="sprite-speed">
        <path fill-rule="evenodd" clip-rule="evenodd" d="M5.45238 25.7679C5.45238 14.7325 14.3319 5.78658 25.2853 5.78658C36.2388 5.78658 45.1183 14.7325 45.1183 25.7679C45.1183 31.2862 42.9011 36.2781 39.3094 39.8968C38.3412 40.8721 38.3412 42.4536 39.3094 43.429C40.2775 44.4044 41.8472 44.4044 42.8154 43.429C47.299 38.9118 50.0766 32.6643 50.0766 25.7679C50.0766 11.9737 38.9772 0.79126 25.2853 0.79126C11.5935 0.79126 0.494141 11.9737 0.494141 25.7679C0.494141 32.673 3.2787 38.9276 7.77225 43.446C8.74134 44.4205 10.311 44.419 11.2783 43.4426C12.2455 42.4663 12.244 40.8849 11.2749 39.9104C7.67513 36.2907 5.45238 31.2931 5.45238 25.7679ZM36.9537 14.0113C37.9219 14.9867 37.9219 16.5681 36.9537 17.5435L31.9968 22.5375C32.4614 23.5157 32.7216 24.6112 32.7216 25.768C32.7216 29.9063 29.3918 33.261 25.2842 33.261C21.1767 33.261 17.8469 29.9063 17.8469 25.768C17.8469 21.6298 21.1767 18.275 25.2842 18.275C26.4324 18.275 27.5199 18.5372 28.4908 19.0053L33.4477 14.0113C34.4159 13.0359 35.9856 13.0359 36.9537 14.0113ZM25.2842 23.2704C23.9151 23.2704 22.8051 24.3886 22.8051 25.768C22.8051 27.1474 23.9151 28.2657 25.2842 28.2657C26.6534 28.2657 27.7634 27.1474 27.7634 25.768C27.7634 24.3886 26.6534 23.2704 25.2842 23.2704Z" />
    </symbol>

    <symbol id="sprite-stop">
        <path d="M28 15.5L28 30.989L-0.0002207 30.989L-0.000219345 9.65243e-07L28 9.65243e-07L28 15.5Z" />
    </symbol>
    <symbol id="sprite-pause">
        <rect y="0.583374" width="6.16667" height="30.8333" fill="white"/>
        <rect x="22" y="0.583374" width="6.16667" height="30.8333" fill="white"/>
    </symbol>
    <symbol id="sprite-upload">
        <path d="M51 35V38.2C51 42.6805 51 44.9205 50.128 46.632C49.3611 48.1373 48.1373 49.3611 46.632 50.128C44.9205 51 42.6805 51 38.2 51H15.8C11.3196 51 9.07936 51 7.36808 50.128C5.86277 49.3611 4.63893 48.1373 3.87195 46.632C3 44.9205 3 42.6805 3 38.2V35M40.3333 16.3333L27 3M27 3L13.6667 16.3333M27 3V35" stroke="#68CAF3" stroke-width="5.33333" stroke-linecap="round" stroke-linejoin="round"/>
    </symbol>

</svg>